<svg version="1.1" 
xmlns="http://www.w3.org/2000/svg" xmlns:xlink="http://www.w3.org/1999/xlink" xmlns:a="http://ns.adobe.com/AdobeSVGViewerExtensions/3.0/" 
x="0px" y="0px" width="1280px" height="1280px" viewBox="0 0 320 320" style="overflow:visible;enable-background:new 0 0 320 320;" 
xml:space="preserve"> 
<defs>
</defs>
undefined<pattern  width='5.669' height='5.669' patternUnits='userSpaceOnUse' id='N1' viewBox='0 -5.669 5.669 5.669' style='overflow:visible;'>
<g>
<polygon style='fill:none;' points='0,0 5.669,0 5.669,-5.669 0,-5.669'/>
<polygon style='fill:#FFFFFF;' points='5.669,0 0,0 0,-5.669 5.669,-5.669'/>
<g>
<path style ='fill:#AC2B31;' d='M2.353-4.252c0,0.47-0.381,0.851-0.85,0.851c-0.47,0-0.851-0.381-0.851-0.851c0-0.469,0.381-0.85,0.851-0.85C1.972-5.102,2.353-4.721,2.353-4.252z'/>
<path style = 'fill:#AC2B31;' d='M5.187-1.417c0,0.47-0.381,0.851-0.85,0.851c-0.47,0-0.851-0.381-0.851-0.851c0-0.469,0.381-0.85,0.851-0.85C4.806-2.268,5.187-1.887,5.187-1.417z'/>
</g>
</g>
</pattern>
<pattern  width='5.669' height='5.669' patternUnits='userSpaceOnUse' id='N4' viewBox='0 -5.669 5.669 5.669' style='overflow:visible;'>
<g>
<polygon style='fill:none;' points='0,0 5.669,0 5.669,-5.669 0,-5.669'/>
<polygon style='fill:#FFFFFF;' points='5.669,0 0,0 0,-5.669 5.669,-5.669'/>
<g>
<path style ='' d='M2.353-4.252c0,0.47-0.381,0.851-0.85,0.851c-0.47,0-0.851-0.381-0.851-0.851c0-0.469,0.381-0.85,0.851-0.85C1.972-5.102,2.353-4.721,2.353-4.252z'/>
<path style = '' d='M5.187-1.417c0,0.47-0.381,0.851-0.85,0.851c-0.47,0-0.851-0.381-0.851-0.851c0-0.469,0.381-0.85,0.851-0.85C4.806-2.268,5.187-1.887,5.187-1.417z'/>
</g>
</g>
</pattern>
<pattern  width='5.669' height='5.669' patternUnits='userSpaceOnUse' id='N5' viewBox='0 -5.669 5.669 5.669' style='overflow:visible;'>
<g>
<polygon style='fill:none;' points='0,0 5.669,0 5.669,-5.669 0,-5.669'/>
<polygon style='fill:#FFF200;' points='5.669,0 0,0 0,-5.669 5.669,-5.669'/>
<g>
<path style ='fill:#AC2B31;' d='M2.353-4.252c0,0.47-0.381,0.851-0.85,0.851c-0.47,0-0.851-0.381-0.851-0.851c0-0.469,0.381-0.85,0.851-0.85C1.972-5.102,2.353-4.721,2.353-4.252z'/>
<path style = 'fill:#AC2B31;' d='M5.187-1.417c0,0.47-0.381,0.851-0.85,0.851c-0.47,0-0.851-0.381-0.851-0.851c0-0.469,0.381-0.85,0.851-0.85C4.806-2.268,5.187-1.887,5.187-1.417z'/>
</g>
</g>
</pattern>
<pattern  width='5.669' height='5.669' patternUnits='userSpaceOnUse' id='N7' viewBox='0 -5.669 5.669 5.669' style='overflow:visible;'>
<g>
<polygon style='fill:none;' points='0,0 5.669,0 5.669,-5.669 0,-5.669'/>
<polygon style='fill:#939598;' points='5.669,0 0,0 0,-5.669 5.669,-5.669'/>
<g>
<path style ='' d='M2.353-4.252c0,0.47-0.381,0.851-0.85,0.851c-0.47,0-0.851-0.381-0.851-0.851c0-0.469,0.381-0.85,0.851-0.85C1.972-5.102,2.353-4.721,2.353-4.252z'/>
<path style = '' d='M5.187-1.417c0,0.47-0.381,0.851-0.85,0.851c-0.47,0-0.851-0.381-0.851-0.851c0-0.469,0.381-0.85,0.851-0.85C4.806-2.268,5.187-1.887,5.187-1.417z'/>
</g>
</g>
</pattern>
<pattern  width='5.669' height='5.669' patternUnits='userSpaceOnUse' id='N10' viewBox='0 -5.669 5.669 5.669' style='overflow:visible;'>
<g>
<polygon style='fill:none;' points='0,0 5.669,0 5.669,-5.669 0,-5.669'/>
<polygon style='fill:#603913;' points='5.669,0 0,0 0,-5.669 5.669,-5.669'/>
<g>
<path style ='fill:#C49A6C;' d='M2.353-4.252c0,0.47-0.381,0.851-0.85,0.851c-0.47,0-0.851-0.381-0.851-0.851c0-0.469,0.381-0.85,0.851-0.85C1.972-5.102,2.353-4.721,2.353-4.252z'/>
<path style = 'fill:#C49A6C;' d='M5.187-1.417c0,0.47-0.381,0.851-0.85,0.851c-0.47,0-0.851-0.381-0.851-0.851c0-0.469,0.381-0.85,0.851-0.85C4.806-2.268,5.187-1.887,5.187-1.417z'/>
</g>
</g>
</pattern>
<pattern  width='5.669' height='5.669' patternUnits='userSpaceOnUse' id='N9' viewBox='0 -5.669 5.669 5.669' style='overflow:visible;'>
<g>
<polygon style='fill:none;' points='0,0 5.669,0 5.669,-5.669 0,-5.669'/>
<polygon style='fill:#F7B7D3;' points='5.669,0 0,0 0,-5.669 5.669,-5.669'/>
<g>
<path style ='' d='M2.353-4.252c0,0.47-0.381,0.851-0.85,0.851c-0.47,0-0.851-0.381-0.851-0.851c0-0.469,0.381-0.85,0.851-0.85C1.972-5.102,2.353-4.721,2.353-4.252z'/>
<path style = '' d='M5.187-1.417c0,0.47-0.381,0.851-0.85,0.851c-0.47,0-0.851-0.381-0.851-0.851c0-0.469,0.381-0.85,0.851-0.85C4.806-2.268,5.187-1.887,5.187-1.417z'/>
</g>
</g>
</pattern>
<pattern  width='5.669' height='5.669' patternUnits='userSpaceOnUse' id='N11' viewBox='0 -5.669 5.669 5.669' style='overflow:visible;'>
<g>
<polygon style='fill:none;' points='0,0 5.669,0 5.669,-5.669 0,-5.669'/>
<polygon style='fill:#603913;' points='5.669,0 0,0 0,-5.669 5.669,-5.669'/>
<g>
<path style ='' d='M2.353-4.252c0,0.47-0.381,0.851-0.85,0.851c-0.47,0-0.851-0.381-0.851-0.851c0-0.469,0.381-0.85,0.851-0.85C1.972-5.102,2.353-4.721,2.353-4.252z'/>
<path style = '' d='M5.187-1.417c0,0.47-0.381,0.851-0.85,0.851c-0.47,0-0.851-0.381-0.851-0.851c0-0.469,0.381-0.85,0.851-0.85C4.806-2.268,5.187-1.887,5.187-1.417z'/>
</g>
</g>
</pattern>
<pattern  width='5.669' height='5.669' patternUnits='userSpaceOnUse' id='N8' viewBox='0 -5.669 5.669 5.669' style='overflow:visible;'>
<g>
<polygon style='fill:none;' points='0,0 5.669,0 5.669,-5.669 0,-5.669'/>
<polygon style='fill:#939598;' points='5.669,0 0,0 0,-5.669 5.669,-5.669'/>
<g>
<path style ='' d='M2.353-4.252c0,0.47-0.381,0.851-0.85,0.851c-0.47,0-0.851-0.381-0.851-0.851c0-0.469,0.381-0.85,0.851-0.85C1.972-5.102,2.353-4.721,2.353-4.252z'/>
<path style = '' d='M5.187-1.417c0,0.47-0.381,0.851-0.85,0.851c-0.47,0-0.851-0.381-0.851-0.851c0-0.469,0.381-0.85,0.851-0.85C4.806-2.268,5.187-1.887,5.187-1.417z'/>
</g>
</g>
</pattern>
undefinedundefined<rect width = "640px" height = "640px" style = 'fill:#00AFC1;'/>
undefinedundefinedundefined<path d = 'M113.863,169.423c-1.679-0.279-2.8,5.6-5.2,8c-4.865,4.865-12.8,3.602-17.2-0.4c-4.4-3.999-7.678-12.741-8.877-20.333c-1.199-7.6-3.6-10.799-4-15.199c-0.4-4.4,1.756-8.107,5.257-9.268c3.62-1.2,8.021-0.4,10.421,2c3.929,3.93,8.779,3.6,8.779,3.6s4.82-1.6,5.221-3.6c0.4-2-3.6,10-0.8,15.6c2.8,5.6,6.8,5.199,10.4,20.8C117.862,170.623,116.262,169.822,113.863,169.423z' style = 'fill:#C19D73;'/>
<path d = 'M206.138,169.423c1.679-0.279,2.799,5.6,5.2,8c4.865,4.865,12.799,3.602,17.199-0.4c4.399-3.999,7.678-12.741,8.877-20.333c1.2-7.6,3.601-10.799,4.001-15.199c0.4-4.4-1.756-8.107-5.258-9.268c-3.62-1.2-8.021-0.4-10.421,2c-3.927,3.93-8.777,3.6-8.777,3.6s-4.821-1.6-5.221-3.6c-0.4-2,3.6,10,0.8,15.6c-2.801,5.6-6.8,5.199-10.4,20.8C202.138,170.623,203.737,169.822,206.138,169.423z' style = 'fill:#C19D73;'/>
<path d = 'M100.757,183.399c-4.056,0-8.241-1.603-11.194-4.289c-5.423-4.929-8.65-14.921-9.766-21.98c-0.597-3.784-1.514-6.412-2.323-8.73c-0.761-2.182-1.481-4.243-1.7-6.654c-0.519-5.703,2.366-10.606,7.179-12.203c1.391-0.461,2.869-0.694,4.393-0.694c3.518,0,6.766,1.231,8.913,3.378c2.425,2.425,5.343,2.74,6.291,2.775c1.151-0.431,2.37-1.067,2.891-1.507c0.361-1.002,1.082-2.318,2.842-2.318c0.846,0,1.651,0.381,2.187,1.035c0.572,0.699,0.761,1.561,0.56,2.563c-0.089,0.446-0.251,0.881-0.482,1.3c-0.995,3.49-1.968,9.669-0.561,12.484c0.717,1.433,1.519,2.377,2.533,3.574c2.431,2.863,5.456,6.427,8.093,17.854c0.246,1.065-0.146,2.177-1.005,2.853c-0.857,0.677-2.032,0.798-3.008,0.306l0,0c0,0-0.759-0.364-1.967-0.677c-0.24,0.475-0.51,1.071-0.718,1.529c-0.838,1.853-1.787,3.95-3.256,5.419C108.091,181.985,104.575,183.399,100.757,183.399L100.757,183.399zM87.346,134.494c-0.906,0-1.811,0.141-2.616,0.408c-2.271,0.753-3.611,3.298-3.334,6.333c0.156,1.718,0.709,3.301,1.408,5.305c0.843,2.417,1.893,5.425,2.569,9.709c1.241,7.854,4.525,15.539,7.988,18.684c1.941,1.767,4.707,2.821,7.396,2.821c1.634,0,3.986-0.404,5.909-2.328c0.742-0.741,1.498-2.412,2.105-3.755c1.131-2.498,2.3-5.081,4.975-5.081c0.04,0,0.088,0.002,0.139,0.005c-1.94-6.417-3.902-8.727-5.668-10.809c-1.11-1.308-2.257-2.659-3.278-4.702c-1.505-3.009-1.466-7.135-1.029-10.578c-0.211,0.068-0.457,0.113-0.676,0.131c0,0-0.168,0.013-0.477,0.013c-1.421,0-6.378-0.32-10.49-4.434C91.204,135.155,89.317,134.494,87.346,134.494L87.346,134.494z' style = 'fill:#000000;'/>
<path d = 'M219.242,183.399c-3.817,0-7.333-1.414-9.9-3.981c-1.469-1.469-2.418-3.567-3.256-5.419c-0.208-0.458-0.479-1.055-0.718-1.529c-1.21,0.312-1.973,0.68-1.982,0.685c-0.978,0.475-2.15,0.349-2.998-0.327c-0.852-0.677-1.244-1.779-1.001-2.839c2.638-11.426,5.663-14.99,8.094-17.853c1.014-1.196,1.816-2.141,2.533-3.575c1.408-2.815,0.435-8.994-0.562-12.486c-0.229-0.417-0.393-0.853-0.48-1.299c-0.201-1-0.013-1.863,0.56-2.562c0.536-0.654,1.342-1.036,2.187-1.036c1.761,0,2.481,1.316,2.843,2.318c0.52,0.438,1.747,1.081,2.88,1.504c1.071-0.046,3.924-0.395,6.3-2.772c2.148-2.148,5.396-3.379,8.913-3.379c1.523,0,3.001,0.233,4.393,0.694c4.813,1.597,7.699,6.5,7.18,12.203c-0.219,2.41-0.938,4.472-1.7,6.655c-0.809,2.318-1.727,4.946-2.323,8.729c-1.115,7.057-4.341,17.049-9.768,21.982C227.482,181.797,223.299,183.399,219.242,183.399L219.242,183.399zM206.254,166.591c2.675,0,3.844,2.583,4.974,5.081c0.607,1.343,1.364,3.014,2.105,3.755c1.924,1.924,4.276,2.328,5.909,2.328c2.689,0,5.454-1.055,7.396-2.819c3.463-3.147,6.748-10.832,7.988-18.686c0.677-4.283,1.728-7.291,2.57-9.708c0.699-2.004,1.251-3.588,1.407-5.306c0.276-3.036-1.062-5.581-3.335-6.334c-2.554-0.85-5.983-0.236-7.536,1.316c-4.109,4.114-9.068,4.434-10.488,4.434c-0.309,0-0.479-0.014-0.479-0.014c-0.218-0.017-0.465-0.062-0.676-0.13c0.438,3.443,0.476,7.569-1.027,10.578c-1.021,2.043-2.169,3.395-3.28,4.703c-1.767,2.082-3.728,4.391-5.668,10.808C206.166,166.593,206.214,166.591,206.254,166.591L206.254,166.591z' style = 'fill:#000000;'/>
<path d = 'M103.008,164.196c-2.44,0.861-4.607,0.788-6.44-0.221c-1.992-1.097-3.491-3.288-4.113-6.011c-1.429-6.252,1.435-8.681,2.981-9.514c0.41,1.178,0.775,2.525,1.052,4.119c0.074,0.421,0.133,0.882,0.195,1.363c0.355,2.742,0.892,6.885,4.889,7.773c0.103,0.022,0.206,0.033,0.307,0.033c0.647,0,1.23-0.448,1.376-1.105c0.17-0.761-0.311-1.514-1.071-1.683c-1.916-0.426-2.329-2.499-2.702-5.381c-0.067-0.522-0.133-1.024-0.213-1.483c-1.568-9.016-5.955-12.93-9.536-13.585c-1.523-0.285-3.652,0.143-4.976,1.714c-0.707,0.838-1.725,2.703-0.604,5.759c0.27,0.732,1.084,1.107,1.812,0.839c0.732-0.269,1.106-1.08,0.838-1.812c-0.331-0.9-0.58-2.147,0.112-2.968c0.565-0.671,1.588-0.887,2.309-0.757c0.396,0.072,2.996,0.707,5.101,4.607c-2.172,1.152-6.491,4.533-4.623,12.709c0.802,3.508,2.808,6.369,5.504,7.855c1.404,0.772,2.96,1.16,4.611,1.16c1.325,0,2.711-0.25,4.131-0.75c0.734-0.261,1.12-1.066,0.86-1.801C104.548,164.324,103.747,163.944,103.008,164.196z' style = 'fill:#000000;'/>
<path d = 'M235.183,140.215c-1.324-1.572-3.458-1.994-4.975-1.715c-3.583,0.656-7.969,4.569-9.537,13.586c-0.08,0.458-0.145,0.96-0.212,1.481c-0.374,2.883-0.786,4.958-2.702,5.383c-0.761,0.169-1.24,0.922-1.072,1.683c0.146,0.657,0.73,1.105,1.376,1.105c0.103,0,0.204-0.011,0.308-0.033c3.998-0.888,4.534-5.033,4.89-7.776c0.062-0.479,0.121-0.94,0.194-1.361c0.276-1.594,0.642-2.941,1.051-4.118c1.547,0.833,4.413,3.26,2.983,9.513c-0.622,2.724-2.122,4.915-4.114,6.012c-1.832,1.008-3.998,1.083-6.439,0.221c-0.737-0.254-1.541,0.127-1.802,0.861c-0.259,0.734,0.127,1.54,0.861,1.801c1.42,0.5,2.806,0.75,4.13,0.75c1.651,0,3.207-0.388,4.611-1.16c2.695-1.484,4.702-4.348,5.504-7.855c1.868-8.177-2.45-11.558-4.622-12.709c2.104-3.901,4.705-4.535,5.102-4.607c0.715-0.129,1.743,0.087,2.309,0.757c0.691,0.821,0.442,2.067,0.111,2.968c-0.269,0.732,0.106,1.542,0.838,1.811c0.73,0.273,1.542-0.106,1.811-0.838C236.908,142.918,235.89,141.054,235.183,140.215z' style = 'fill:#000000;'/>
undefined<path d = 'M160,38.399c13.999,0,37.147,7.601,50.348,24.001c12.204,15.162,14,33.708,14.401,42.524c0.4,8.817-1.646,35.248-3.527,56.884c-1.467,16.87,0.408,36.572-6.112,53.387c-6.703,17.286-23.468,37.607-55.109,37.607c-31.641,0-48.407-20.321-55.11-37.607c-6.52-16.814-4.645-36.517-6.112-53.387c-1.881-21.637-3.927-48.067-3.527-56.884c0.4-8.816,2.197-27.362,14.4-42.524C122.852,46,146,38.399,160,38.399z' style = 'fill:#C19D73;'/>
<path d = 'M160,256.329c-39.847,0-54.773-30.509-58.399-39.858c-4.864-12.546-5.255-26.217-5.632-39.438c-0.15-5.229-0.291-10.168-0.705-14.918c-2.677-30.783-3.867-50.078-3.537-57.35c0.821-18.087,5.928-33.085,15.176-44.576C120.281,43.567,143.741,34.871,160,34.871c16.26,0,39.719,8.696,53.096,25.317c9.248,11.489,14.354,26.486,15.177,44.575c0.33,7.265-0.858,26.561-3.536,57.351c-0.414,4.75-0.554,9.69-0.704,14.92c-0.378,13.221-0.77,26.891-5.634,39.437C214.772,225.82,199.846,256.329,160,256.329L160,256.329zM160,41.927c-14.224,0-35.74,7.951-47.6,22.685c-8.289,10.299-12.873,23.916-13.625,40.473c-0.312,6.865,0.905,26.374,3.518,56.418c0.43,4.955,0.574,9.995,0.727,15.329c0.361,12.623,0.735,25.678,5.16,37.088c4.122,10.63,17.422,35.354,51.82,35.354c34.397,0,47.698-24.725,51.819-35.354c4.426-11.411,4.799-24.464,5.16-37.087c0.152-5.336,0.297-10.376,0.729-15.331c2.613-30.051,3.828-49.561,3.517-56.417c-0.754-16.559-5.337-30.176-13.624-40.473C195.741,49.877,174.225,41.927,160,41.927L160,41.927z' style = 'fill:#000000;'/>
undefined<path d = 'M188.046,207.596l-1.139,0.123c-0.799,0.046-1.948,0.017-3.001-0.12c-1.555-0.199-7.635-1.904-12.073-3.148c-3.38-0.947-5.487-1.535-6.195-1.67c-1.382-0.268-2.939,0.208-4.226,0.627c-0.493,0.161-1.169,0.382-1.414,0.382c-0.243,0-0.917-0.221-1.41-0.381c-1.284-0.42-2.846-0.892-4.227-0.63c-0.708,0.137-2.815,0.725-6.194,1.672c-4.439,1.244-10.518,2.949-12.073,3.148c-0.732,0.096-1.463,0.144-2.172,0.144c-0.31,0-0.588-0.01-0.831-0.023l-1.138-0.123c-0.754-0.082-1.429,0.441-1.544,1.188c-0.116,0.745,0.381,1.452,1.121,1.6c0,0,0.481,0.097,1.326,0.148c1.184,0.127,2.917,0.308,4.806,0.492c3.563,1.864,10.349,5.741,11.961,8.158c2.325,3.489,7.596,3.849,9.668,3.849c0.32,0,0.565-0.01,0.709-0.017c0.882,0.042,7.687,0.204,10.374-3.832c1.611-2.417,8.399-6.294,11.962-8.158c1.889-0.185,3.62-0.365,4.804-0.492c0.848-0.052,1.328-0.148,1.328-0.148c0.74-0.148,1.237-0.854,1.122-1.602C189.474,208.037,188.798,207.508,188.046,207.596zM148.93,207.168c2.745-0.77,5.337-1.497,5.967-1.618c0.787-0.142,1.86,0.23,2.816,0.541c0.855,0.279,1.593,0.52,2.285,0.52c0.693,0,1.433-0.24,2.289-0.521c0.957-0.312,2.017-0.693,2.817-0.539c0.628,0.12,3.222,0.848,5.967,1.617c2.015,0.564,3.888,1.088,5.548,1.542c-1.897,0.152-3.569,0.26-4.535,0.26c-0.069,0-0.138,0.006-0.207,0.016c-0.088,0.014-8.884,1.312-11.878,1.312c-2.992,0-11.789-1.298-11.877-1.312c-0.068-0.01-0.137-0.016-0.207-0.016c-0.966,0-2.636-0.107-4.534-0.26C145.042,208.256,146.915,207.732,148.93,207.168zM168.027,217.617c-1.592,2.391-6.275,2.676-7.947,2.577c-0.053-0.003-0.109-0.003-0.161,0c-1.669,0.098-6.353-0.188-7.946-2.577c-1.256-1.885-4.451-4.133-7.499-5.993c1.358,0.098,2.536,0.163,3.334,0.168c1.051,0.154,9.137,1.327,12.19,1.327c3.055,0,11.141-1.173,12.192-1.327c0.799-0.005,1.978-0.07,3.335-0.168C172.479,213.484,169.284,215.732,168.027,217.617z' style = 'fill:#000000;'/>
undefinedundefined<path d = 'M171.643,152.398c-2.05-1.529-4.118-6.079-4.118-7.458c0-3.821,2.16-4.586,2.425-4.665c0.744-0.201,1.19-0.962,0.999-1.71c-0.191-0.756-0.967-1.214-1.714-1.02c-0.187,0.047-4.532,1.224-4.532,7.395c0,2.187,2.455,7.634,5.254,9.721c0.254,0.189,0.549,0.28,0.842,0.28c0.431,0,0.856-0.196,1.133-0.568C172.396,153.748,172.268,152.864,171.643,152.398z' style = 'fill:#000000;'/>
<path d = 'M155.298,144.94c0-6.171-4.347-7.348-4.532-7.395c-0.748-0.19-1.491,0.258-1.695,0.998c-0.204,0.742,0.238,1.514,0.975,1.731c0.249,0.074,2.43,0.828,2.43,4.667c0,1.379-2.068,5.929-4.119,7.458c-0.625,0.466-0.754,1.35-0.288,1.975c0.277,0.372,0.702,0.568,1.133,0.568c0.293,0,0.589-0.091,0.842-0.28C152.842,152.574,155.298,147.126,155.298,144.94z' style = 'fill:#000000;'/>
<path d = 'M147.2,186.987c-0.019,0-1.917-0.075-3.111-2.762c-1.25-2.811,1.046-6.188,1.069-6.22c0.444-0.639,0.288-1.517-0.35-1.963c-0.638-0.445-1.517-0.291-1.965,0.348c-0.133,0.189-3.236,4.703-1.333,8.981c1.95,4.387,5.538,4.438,5.689,4.438c0.779,0,1.411-0.631,1.411-1.411C148.611,187.619,147.979,186.987,147.2,186.987z' style = 'fill:#000000;'/>
<path d = 'M177.156,176.391c-0.446-0.637-1.32-0.794-1.961-0.348c-0.638,0.444-0.795,1.321-0.354,1.963c0.023,0.032,2.319,3.409,1.067,6.22c-1.177,2.651-3.057,2.759-3.108,2.762c-0.78,0-1.411,0.632-1.411,1.411c0,0.78,0.631,1.411,1.411,1.411c0.151,0,3.74-0.051,5.688-4.438C180.393,181.094,177.289,176.58,177.156,176.391z' style = 'fill:#000000;'/>
<path d = 'M168.99,184.242c-0.295,0.023-2.934,0.28-4.592,2.269c-1.12,1.345-3.564,1.667-4.384,1.679c-0.848-0.012-3.293-0.334-4.414-1.68c-1.656-1.987-4.296-2.244-4.592-2.268c-0.768-0.055-1.455,0.521-1.515,1.299c-0.06,0.776,0.522,1.456,1.299,1.516c0.018,0.001,1.739,0.179,2.641,1.261c2.219,2.664,6.392,2.694,6.579,2.694c0.177-0.002,4.362-0.061,6.556-2.694c0.911-1.096,2.628-1.26,2.647-1.261c0.773-0.065,1.351-0.741,1.291-1.516C170.447,184.764,169.78,184.177,168.99,184.242z' style = 'fill:#000000;'/>
undefined<path d = 'M194.898,143.196c0,2.987-2.417,5.404-5.401,5.404c-2.987,0-5.407-2.417-5.407-5.404H194.898zM125.101,143.196c0,2.987,2.42,5.404,5.407,5.404c2.985,0,5.402-2.417,5.402-5.404H125.101z' style = 'fill:#00AFC1;'/>
<path d = 'M147.214,144.081c-0.196-0.095-4.861-2.328-9.297-2.54c-4.174-0.2-23.665-0.537-24.493-0.552c-0.492-0.009-0.971,0.25-1.231,0.681c-0.26,0.429-0.272,0.965-0.032,1.406c0.137,0.25,1.369,2.468,2.736,3.608c0.264,0.22,0.584,0.327,0.903,0.327c0.404,0,0.805-0.173,1.084-0.508c0.499-0.599,0.418-1.488-0.181-1.987c-0.206-0.172-0.421-0.401-0.632-0.658c2.099,0.039,5.188,0.097,8.407,0.162c0.407,2.977,2.941,5.285,6.029,5.285c2.986,0,5.468-2.158,5.995-4.995c0.506,0.017,0.954,0.034,1.28,0.05c3.852,0.183,8.161,2.241,8.203,2.261c0.7,0.337,1.546,0.045,1.885-0.657C148.209,145.263,147.915,144.42,147.214,144.081zM130.508,147.895c-2.3,0-4.208-1.663-4.612-3.845c1.153,0.024,2.304,0.049,3.419,0.074c-0.052,0.138-0.089,0.284-0.089,0.44c0,0.703,0.571,1.274,1.274,1.274c0.704,0,1.275-0.571,1.275-1.274c0-0.136-0.038-0.262-0.078-0.385c1.237,0.029,2.383,0.059,3.364,0.087C134.575,146.339,132.728,147.895,130.508,147.895zM208.008,141.67c-0.259-0.43-0.723-0.681-1.231-0.681c-0.827,0.015-20.32,0.352-24.495,0.551c-4.438,0.211-9.101,2.445-9.297,2.54c-0.702,0.34-0.995,1.183-0.656,1.884c0.339,0.702,1.184,0.998,1.884,0.657c0.044-0.021,4.352-2.078,8.205-2.261c0.282-0.014,0.661-0.028,1.08-0.042c0.529,2.834,3.014,4.988,6,4.988c3.084,0,5.615-2.307,6.023-5.281c3.292-0.067,6.466-0.127,8.608-0.166c-0.211,0.256-0.427,0.486-0.633,0.658c-0.598,0.499-0.679,1.389-0.179,1.987c0.278,0.334,0.68,0.507,1.084,0.507c0.318,0,0.64-0.107,0.903-0.328c1.365-1.139,2.599-3.357,2.735-3.606C208.279,142.636,208.269,142.1,208.008,141.67zM189.497,147.895c-2.22,0-4.068-1.552-4.559-3.624c0.973-0.028,2.121-0.059,3.363-0.088c-0.04,0.122-0.077,0.246-0.077,0.38c0,0.703,0.571,1.274,1.273,1.274c0.704,0,1.276-0.571,1.276-1.274c0-0.154-0.037-0.299-0.088-0.436c1.111-0.025,2.261-0.049,3.417-0.074C193.697,146.234,191.793,147.895,189.497,147.895z' style = 'fill:#000000;'/>
undefined<path d = 'M207.507,132.161c0,0-5.226-3.445-6.739-4.009c-2.142-0.798-4.963-1.504-8.021-0.563c-2.902,0.894-11.172,3.763-14.228,4.821c-1.873,0.648-5.527,1.882-5.998-0.118c-0.46-1.957,2.117-2.822,5.057-3.528c4.8-1.152,12.089-2.463,15.262-3.081C196.01,125.066,200.371,125.376,207.507,132.161z' style = 'fill:#F15A29;'/>
<path d = 'M112.494,132.161c0,0,5.226-3.445,6.738-4.009c2.142-0.798,4.964-1.504,8.021-0.563c2.902,0.894,11.172,3.763,14.229,4.821c1.873,0.648,5.527,1.882,5.997-0.118c0.46-1.957-2.117-2.822-5.056-3.528c-4.8-1.152-12.09-2.463-15.262-3.081C123.99,125.066,119.629,125.376,112.494,132.161z' style = 'fill:#F15A29;'/>
<path d = 'M174.343,134.089c-1.848,0-2.365-1.025-2.508-1.636c-0.677-2.874,3.238-3.814,5.576-4.375c3.796-0.911,9.199-1.931,12.774-2.607l2.519-0.48c0.788-0.153,1.526-0.228,2.26-0.228c3.948,0,8.088,2.188,13.029,6.887c0.265,0.251,0.293,0.665,0.066,0.95c-0.23,0.286-0.636,0.35-0.941,0.15c-1.435-0.946-5.417-3.498-6.597-3.938c-2.938-1.094-5.291-1.252-7.567-0.549c-2.766,0.851-10.483,3.524-13.78,4.666l-0.424,0.147C177.333,133.566,175.708,134.089,174.343,134.089L174.343,134.089zM194.964,126.174c-0.641,0-1.293,0.066-1.99,0.202l-2.525,0.481c-3.562,0.673-8.945,1.691-12.706,2.593c-3.473,0.833-4.786,1.609-4.535,2.68c0.039,0.165,0.13,0.548,1.136,0.548c1.241,0,3-0.608,3.943-0.936l0.427-0.147c3.303-1.145,11.037-3.823,13.825-4.682c1.649-0.509,3.397-0.614,5.216-0.319C196.794,126.314,195.865,126.174,194.964,126.174L194.964,126.174z' style = 'fill:#000000;'/>
<path d = 'M145.657,134.089C145.657,134.089,145.657,134.089,145.657,134.089c-1.366,0-2.99-0.523-4.406-1.013l-0.426-0.147c-3.295-1.142-11.015-3.815-13.779-4.666c-2.279-0.703-4.632-0.544-7.568,0.549c-1.179,0.44-5.162,2.992-6.596,3.938c-0.306,0.201-0.713,0.136-0.941-0.15c-0.228-0.286-0.198-0.699,0.066-0.95c4.942-4.698,9.082-6.887,13.03-6.887c0.733,0,1.472,0.075,2.26,0.228l2.519,0.48c3.575,0.676,8.979,1.696,12.773,2.607c2.339,0.562,6.254,1.501,5.578,4.376C148.022,133.064,147.505,134.089,145.657,134.089L145.657,134.089zM124.23,126.433c1.106,0,2.194,0.162,3.23,0.481c2.789,0.858,10.523,3.537,13.827,4.682l0.425,0.147c0.944,0.327,2.702,0.936,3.944,0.936h0c1.006,0,1.096-0.384,1.135-0.548c0.252-1.071-1.062-1.847-4.534-2.68c-3.761-0.902-9.144-1.92-12.706-2.593l-2.526-0.481c-1.678-0.327-3.135-0.262-4.781,0.219C122.92,126.486,123.577,126.433,124.23,126.433L124.23,126.433z' style = 'fill:#000000;'/>
undefined<path d = 'M160,85.52c4.702-4.233,24.724-6.165,36.482-3.814c11.757,2.354,15.379,10.349,15.379,18.345c0,7.998-0.472,14.251,4.233,17.544c4.701,3.293,4.654,11.62,4.654,11.62c1.88-2.353,5.174-2.353,5.174-2.353s4.823-21.638,5.881-36.102l-3.527-5.291l4.233-0.47l-4.705-4.233l5.174-2.822c0,0-4.702-14.583-12.7-23.049l-6.113-1.881l4.233-4.233c0,0-8.351-9.055-24.342-15.171l7.026-4.057l-20.311-2.409l4.702-5.264l-11.202,1.853l1.411-5.645l-8.082,5.763l-3.912-9.996L160,21.499l-12.625-8.704L152.4,23.85l-13.317-7.351l1.676,7.056l-10.936-1.116l5.645,5.173l-17.02,3.439l5.644,3.352C109.979,39.871,101.6,48.78,101.6,48.78l4.233,4.233l-6.114,1.881c-7.999,8.467-12.7,23.049-12.7,23.049l5.173,2.822l-4.704,4.233l4.233,0.47l-3.528,5.291c1.059,14.464,5.88,36.102,5.88,36.102s3.293,0,5.173,2.353c0,0-0.048-7.926,4.654-11.219c4.705-3.292,4.233-9.946,4.233-17.944c0-7.996,3.623-15.991,15.383-18.345C135.276,79.354,155.297,81.287,160,85.52z' style = 'fill:#000000;'/>
<path d = 'M237.435,86.581l-5.991-5.388l4.087-2.231l-0.537-1.668c-0.198-0.613-4.943-15.138-13.175-23.853l-0.383-0.405l-3.288-1.011l3.185-3.185l-1.376-1.496c-0.325-0.353-7.472-7.987-21.117-14.052l7.889-4.18l-22.312-3.527l5.467-6.262l-12.875,1.764l3.087-8.819l-11.655,7.913l-4.548-11.616l-4.751,9.849l-14.676-8.968l4.497,10.495l-12.963-7.761l2.645,9.701l-14.006-1.323l6.251,5.727l-17.056,3.913l5.934,3.733c-12.74,5.946-19.407,13.078-19.72,13.414l-1.377,1.496l3.184,3.185l-3.288,1.013l-0.383,0.405c-8.231,8.714-12.977,23.236-13.175,23.851l-0.539,1.668l4.09,2.23l-5.989,5.388l5.465,0.607l-2.002,3.001l0.055,0.724c1.057,14.454,5.726,35.52,5.924,36.409l0.37,1.656h1.696c0.022,0,2.329,0.067,3.521,1.557l3.226,4.028l0.534-5.14c0.007-0.061-0.073-6.609,3.76-9.293c5.216-3.65,5.182-10.665,5.145-18.09l-0.008-1.99c0-9.34,4.093-14.511,12.882-16.269c3.181-0.637,7.968-0.973,12.327-0.973c10.297,0,20.456,1.882,23.124,4.282L160,88.367l1.417-1.277c2.668-2.399,12.826-4.282,23.127-4.282c4.357,0,9.141,0.336,12.321,0.973c8.788,1.758,12.879,6.929,12.879,16.269l-0.007,1.994c-0.037,7.423-0.073,14.435,5.145,18.084c3.817,2.676,3.75,9.186,3.762,9.295l0.517,5.17l3.243-4.059c1.201-1.506,3.513-1.557,3.52-1.557h1.697l0.368-1.656c0.2-0.89,4.87-21.955,5.927-36.409l0.053-0.724l-2.001-3L237.435,86.581zM227.586,83.416l-3,0.333l4.026,6.037l-9.89,0.149l10.787,2.797c-1.103,11.826-4.313,27.415-5.337,32.21c-0.596,0.121-1.292,0.317-2.01,0.631c-0.785-2.797-1.606-6.638-4.854-8.913c-3.396-2.378-3.369-8.04-3.338-14.593l0.007-2.018c0-11.387-5.476-18.256-16.281-20.42c-3.449-0.689-8.521-1.056-13.152-1.056c-8.693,0-19.506,1.372-24.544,4.352c-5.037-2.98-15.85-4.352-24.54-4.352c-4.633,0-9.708,0.367-13.159,1.056c-10.804,2.161-16.283,9.032-16.283,20.42l0.008,2.012c0.032,6.557,0.061,12.221-3.337,14.599c-3.25,2.276-4.07,6.117-4.855,8.913c-0.718-0.314-1.414-0.51-2.011-0.631c-1.004-4.709-4.12-19.825-5.276-31.57l10.892-3.707l-10.008,0.053l3.982-5.968l-3.001-0.335l3.42-3.077l-6.218-3.393c1.431-3.889,5.443-13.792,11.27-20.195l8.933-2.748l-3.501-3.501l8.421,0.429l-8.097-3.856c4.105-3.352,12.013-8.972,21.686-12.67l-5.292-2.47l17.016-2.994l-5.038-4.617l8.483,1.261l-1.519-4.895l13.6,6.835l-3.436-8.717l8.708,5.803l2.639-5.466l3.274,8.374l6.095-5.657l-0.963,4.252l8.896-1.792l-0.207,0.218c-0.175,0.088-0.628,0.333-0.785,0.585c-0.131,0.205-0.152,0.37-0.442,0.484c-0.293,0.116-0.797,0.263-0.801,0.438c-0.004,0.202,0.128,0.404-0.08,0.435c-0.197,0.027-0.228,0.109-0.229,0.229c-0.003,0.12-0.013,0.155-0.073,0.188c-0.061,0.031-0.242,0.047-0.23,0.191c0.009,0.078,0.021,0.141,0.03,0.207l-1.051,1.11l14.314,1.531l-14.095,1.922l14.782,0.67l-2.771,1.467l4.149,1.587c8.62,3.298,14.977,7.502,18.898,10.558l-10.058,2.99l12.813,0.099l-4.772,4.772l8.93,2.748c5.829,6.402,9.841,16.306,11.272,20.198l-6.218,3.39L227.586,83.416z' style = 'fill:#000000;'/>
undefinedundefinedundefined<path d = 'M214.866,145.852c-0.498,0-2.753-0.328-4.737-0.816c-1.017-0.25-1.767-1.193-2.229-1.943c-2.644-8.236-10.354-14.202-19.469-14.202c-8.536,0-15.848,5.237-18.91,12.67c-0.35,0.628-1.127,1.797-2.039,1.797c-1.246,0-1.497-0.998-1.497-1.822c0-0.813-0.746-2.167-2.742-2.167c-0.997,0-3.244,0-3.244,0s-2.245,0-3.241,0c-1.995,0-2.742,1.354-2.742,2.167c0,0.824-0.25,1.822-1.497,1.822c-0.912,0-1.689-1.168-2.04-1.797c-3.064-7.433-10.371-12.67-18.91-12.67c-9.112,0-16.826,5.966-19.468,14.202c-0.46,0.75-1.213,1.692-2.229,1.943c-1.985,0.488-4.239,0.816-4.738,0.816c-0.499,0-0.942,0.943-0.942,2.299c0,1.138,0.193,2.28,0.942,2.28c0.998,0,3.492,0.16,4.738,0.908c0.682,0.408,1.18,0.992,1.589,1.637c1.716,9.564,10.057,16.825,20.108,16.825c9.893,0,18.139-7.024,20.038-16.362c0.969-0.948,2.186-1.495,2.657-2.349c0.749-1.355,0.501-4.111,1.246-5.737c0.75-1.626,2.245-1.921,4.49-1.921c2.247,0,3.743,0.295,4.493,1.921c0.744,1.626,0.499,4.382,1.245,5.737c0.472,0.854,1.689,1.401,2.657,2.349c1.896,9.337,10.146,16.362,20.037,16.362c10.054,0,18.394-7.261,20.108-16.825c0.41-0.645,0.906-1.229,1.59-1.637c1.246-0.75,3.743-0.907,4.737-0.907c0.75,0,0.943-1.145,0.943-2.282C215.81,146.794,215.365,145.852,214.866,145.852zM131.57,166.182c-9.297,0-16.835-7.541-16.835-16.841c0-9.296,7.538-16.833,16.835-16.833c9.295,0,16.833,7.536,16.833,16.833C148.404,158.641,140.866,166.182,131.57,166.182zM188.431,166.182c-9.297,0-16.834-7.541-16.834-16.839c0-9.298,7.537-16.834,16.834-16.834c9.296,0,16.834,7.536,16.834,16.834C205.265,158.641,197.727,166.182,188.431,166.182z' style = 'fill:#2B0100;'/>
undefinedundefinedundefinedundefined<path style="fill:#FFFFFF;" d="M93.364,305.787c0,4.63-3.755,8.385-8.385,8.385H14.346c-4.632,0-8.387-3.755-8.387-8.385l0,0c0-4.633,3.755-8.389,8.387-8.389h70.633C89.608,297.398,93.364,301.154,93.364,305.787L93.364,305.787z"/><path d="M84.979,315.23H14.346c-5.208,0-9.445-4.236-9.445-9.443c0-5.209,4.237-9.446,9.445-9.446h70.633c5.207,0,9.443,4.237,9.443,9.446C94.422,310.994,90.186,315.23,84.979,315.23z M14.346,298.457c-4.041,0-7.329,3.288-7.329,7.33c0,4.04,3.288,7.327,7.329,7.327h70.633c4.04,0,7.326-3.287,7.326-7.327c0-4.042-3.287-7.33-7.326-7.33H14.346z"/> <path style="fill:#595A5C;" d="M42.935,299.743v2.457h-2.406c-1.051,0-1.973,0.386-2.717,1.141c-0.746,0.758-1.125,1.679-1.125,2.739c0,1.082,0.374,2.015,1.113,2.771c0.74,0.758,1.647,1.143,2.694,1.143c0.59,0,1.14-0.125,1.638-0.371c0.283-0.138,0.551-0.315,0.802-0.536v0.896h1.474v-10.24H42.935z M39.391,303.978c0.364-0.212,0.706-0.318,1.139-0.318c0.682,0,1.303,0.231,1.768,0.704c0.467,0.477,0.695,1.057,0.695,1.77c0,0.465-0.104,0.885-0.31,1.251c-0.207,0.368-0.494,0.652-0.878,0.868c-0.383,0.215-0.791,0.325-1.217,0.325c-0.427,0-0.814-0.107-1.186-0.325c-0.367-0.216-0.664-0.522-0.883-0.913c-0.22-0.391-0.331-0.804-0.331-1.23c0-0.431,0.109-0.845,0.327-1.232C38.73,304.493,39.025,304.188,39.391,303.978z"/><path style="fill:#595A5C;" d="M35.911,302.207h-3.786c-0.018,0-0.036-0.003-0.054-0.003c-1.07,0-2.025,0.394-2.762,1.137c-0.746,0.758-1.124,1.679-1.124,2.739c0,1.081,0.375,2.015,1.114,2.771c0.74,0.758,1.646,1.143,2.694,1.143c0.589,0,1.141-0.125,1.639-0.371c0.282-0.138,0.551-0.315,0.802-0.536v0.896h1.474v-6.6h0.003V302.207z M30.887,303.978c0.377-0.219,0.752-0.318,1.184-0.318c0.686,0,1.266,0.237,1.724,0.704c0.469,0.477,0.696,1.057,0.696,1.77c0,0.465-0.104,0.885-0.31,1.251c-0.206,0.368-0.493,0.652-0.877,0.868c-0.383,0.215-0.794,0.325-1.218,0.325c-0.426,0-0.813-0.107-1.186-0.325c-0.368-0.216-0.665-0.522-0.885-0.913c-0.219-0.391-0.33-0.805-0.33-1.23c0-0.431,0.11-0.845,0.328-1.232C30.229,304.493,30.524,304.188,30.887,303.978z"/><path style="fill:#595A5C;" d="M18.914,302.908c0.522-0.435,1.15-0.653,1.866-0.653c0.531,0,1.028,0.121,1.474,0.362c0.179,0.097,0.341,0.21,0.482,0.338c0.137-0.123,0.292-0.231,0.463-0.325c0.441-0.249,0.939-0.375,1.465-0.375h1.168h1.518v1.243v6.496h-1.518v-5.409c0-0.151-0.033-0.352-0.301-0.574c-0.237-0.194-0.515-0.292-0.867-0.292c-0.349,0-0.641,0.098-0.878,0.292c-0.268,0.223-0.3,0.423-0.3,0.574v5.409h-1.518v-5.409c0-0.231-0.09-0.409-0.297-0.578c-0.237-0.192-0.528-0.288-0.891-0.288c-0.351,0-0.64,0.098-0.88,0.299c-0.274,0.225-0.308,0.43-0.308,0.581v5.396h-1.517v-5.396C18.075,303.946,18.365,303.361,18.914,302.908z"/><path style="fill:#595A5C;" d="M51.173,307.497c-0.149,0.209-0.292,0.378-0.421,0.492c-0.201,0.175-0.452,0.316-0.745,0.426c-0.293,0.108-0.6,0.162-0.912,0.162c-0.64,0-1.163-0.219-1.598-0.669c-0.374-0.387-0.59-0.86-0.654-1.437h6.129l-0.003-0.306c-0.009-0.999-0.284-1.847-0.82-2.521c-0.753-0.955-1.771-1.44-3.029-1.44c-1.225,0-2.215,0.474-2.948,1.408c-0.573,0.731-0.863,1.574-0.863,2.505c0,0.991,0.342,1.891,1.017,2.675c0.686,0.798,1.643,1.202,2.843,1.202c0.54,0,1.031-0.084,1.461-0.248c0.433-0.167,0.828-0.412,1.172-0.729c0.343-0.313,0.648-0.732,0.908-1.241l0.136-0.266l-0.02-0.013H51.173z M47.608,304.222c0.428-0.382,0.928-0.569,1.525-0.569c0.359,0,0.709,0.076,1.036,0.229c0.325,0.149,0.587,0.353,0.781,0.596c0.133,0.165,0.247,0.376,0.339,0.628H47.03C47.181,304.726,47.374,304.428,47.608,304.222z"/><path style="fill:#F15B2A;" d="M67.68,302.207h-3.785c-0.019,0-0.035-0.003-0.054-0.003c-1.07,0-2.026,0.394-2.76,1.137c-0.747,0.758-1.125,1.679-1.125,2.739c0,1.081,0.374,2.015,1.112,2.771c0.742,0.758,1.648,1.143,2.696,1.143c0.589,0,1.139-0.125,1.638-0.371c0.283-0.138,0.551-0.315,0.803-0.536v0.896h1.474v-6.6h0.001V302.207z M62.66,303.978c0.376-0.219,0.751-0.318,1.182-0.318c0.686,0,1.267,0.237,1.725,0.704c0.467,0.477,0.694,1.057,0.694,1.77c0,0.465-0.104,0.885-0.309,1.251c-0.207,0.368-0.495,0.652-0.879,0.868c-0.383,0.215-0.792,0.325-1.217,0.325c-0.428,0-0.814-0.107-1.187-0.325c-0.367-0.216-0.665-0.522-0.883-0.913c-0.22-0.391-0.332-0.805-0.332-1.23c0-0.431,0.11-0.845,0.328-1.232C62,304.493,62.295,304.188,62.66,303.978z"/><path style="fill:#F15B2A;" d="M82.85,307.497c-0.147,0.209-0.29,0.378-0.419,0.492c-0.2,0.175-0.453,0.316-0.744,0.426c-0.295,0.108-0.601,0.162-0.912,0.162c-0.641,0-1.163-0.219-1.598-0.669c-0.375-0.387-0.589-0.86-0.656-1.437h6.13l-0.003-0.306c-0.009-0.999-0.284-1.847-0.819-2.521c-0.752-0.955-1.772-1.44-3.028-1.44c-1.225,0-2.217,0.474-2.948,1.408c-0.573,0.731-0.863,1.574-0.863,2.505c0,0.991,0.341,1.891,1.016,2.675c0.686,0.798,1.643,1.202,2.845,1.202c0.538,0,1.03-0.084,1.459-0.248c0.433-0.167,0.826-0.412,1.171-0.729c0.343-0.313,0.65-0.732,0.909-1.241l0.135-0.266l-0.02-0.013H82.85z M79.286,304.222c0.428-0.382,0.928-0.569,1.527-0.569c0.359,0,0.708,0.076,1.034,0.229c0.324,0.149,0.587,0.353,0.781,0.596c0.133,0.165,0.248,0.376,0.339,0.628h-4.258C78.86,304.726,79.053,304.428,79.286,304.222z"/><path style="fill:#F15B2A;" d="M74.647,307.023c-0.359,0.916-1.251,1.567-2.295,1.567c-1.364,0-2.469-1.107-2.469-2.468c0-1.365,1.105-2.471,2.469-2.471c1.121,0,2.068,0.75,2.367,1.775h1.441c-0.328-1.809-1.906-3.183-3.808-3.183c-2.141,0-3.875,1.736-3.875,3.878c0,2.138,1.735,3.871,3.875,3.871c1.827,0,3.356-1.268,3.762-2.971H74.647z"/><path style="fill:#F15B2A;" d="M56.027,303.228c0.216-0.383,0.511-0.686,0.876-0.899c0.375-0.218,0.75-0.315,1.182-0.315c0.003,0,0.005,0,0.01,0h1.987v-1.455h-1.987c-0.004,0-0.007-0.005-0.01-0.005c-1.071,0-2.024,0.396-2.762,1.139c-0.745,0.757-1.124,1.679-1.124,2.741c0,0.005,0,0.012,0,0.017l0.001,5.545h1.494l0.002-3.52h3.22v-1.36h-3.218l0.001-0.665C55.701,304.024,55.811,303.612,56.027,303.228z"/><path style="fill:#F15B2A;" d="M14.945,305.238h1.56v4.756h-1.56V305.238z"/><circle style="fill:#F15B2A;" cx="15.725" cy="303.092" r="1.052"/></svg>